<?xml version="1.0" encoding="utf-8"?>
<!-- Generator: Adobe Illustrator 16.0.0, SVG Export Plug-In . SVG Version: 6.00 Build 0)  -->
<!DOCTYPE svg PUBLIC "-//W3C//DTD SVG 1.1//EN" "http://www.w3.org/Graphics/SVG/1.1/DTD/svg11.dtd">
<svg version="1.1" id="Layer_1" xmlns="http://www.w3.org/2000/svg" xmlns:xlink="http://www.w3.org/1999/xlink" x="0px" y="0px"
	 width="529.704px" height="499.248px" viewBox="0 0 529.704 499.248" enable-background="new 0 0 529.704 499.248"
	 xml:space="preserve">
<polygon fill="#FFFFFF" points="458.604,387.685 458.604,149.508 503.821,149.508 503.821,100.188 355.86,100.188 355.86,149.508 
	401.077,149.508 401.077,352.548 443.196,387.685 "/>
<path fill="#FFFFFF" d="M100.548,383.868c-2.808,2.304-6.912,3.814-10.584,3.814h-5.328c-6.408,0-13.032-1.367-18.864-3.744
	c-5.832-2.446-11.52-6.19-15.984-10.654c-4.536-4.536-8.28-10.225-10.728-16.057c-2.448-5.903-3.744-12.457-3.744-18.793V149.508
	c0-6.336,1.368-12.888,3.744-18.864c2.376-5.832,6.192-11.52,10.728-15.984c4.536-4.464,10.152-8.28,15.984-10.729
	c5.832-2.376,12.456-3.744,18.864-3.744h41.112c6.336,0,12.96,1.296,18.864,3.744c5.904,2.448,11.52,6.264,15.984,10.729
	c4.464,4.464,8.28,10.08,10.728,15.984c2.448,5.904,3.744,12.528,3.744,18.864v65.664H117.54V161.82c0-3.096-1.368-6.48-3.6-8.712
	s-5.688-3.6-8.784-3.6c-3.168,0-6.552,1.44-8.712,3.6c-2.232,2.232-3.528,5.616-3.528,8.712v164.304
	c0,3.096,1.512,6.624,3.528,8.641c2.232,2.231,5.616,3.672,8.712,3.672c3.168,0,6.624-1.513,8.784-3.672
	c2.088-2.089,3.6-5.545,3.6-8.641v-69.84h57.528v42.479c0,7.129-1.728,14.616-4.68,20.881c-2.952,6.479-7.704,12.455-13.032,16.92
	L100.548,383.868z"/>
<polygon fill="#FFCF2D" stroke="#FFDF1C" stroke-width="0.216" points="417.565,387.685 121.572,387.685 269.532,264.492 "/>
<path fill="#FFFFFF" d="M354.42,313.74l-45.504-213.552h-39.385H230.22L184.716,313.74l84.816-70.632v0.072L354.42,313.74z
	 M253.116,226.692l16.416-77.184v0.216l16.488,76.968h-16.488H253.116z"/>
</svg>
